<svg width="24" height="21" viewBox="0 0 24 21" fill="none" xmlns="http://www.w3.org/2000/svg">
<path d="M5.09289 7.70191C5.91242 7.70191 6.73293 7.42905 7.37857 6.95637C7.30363 6.60856 7.25463 6.26078 7.25463 5.88798C7.25463 4.54675 7.80132 3.32954 8.69579 2.45983C8.09914 0.99371 6.65897 0.000265783 5.09375 0.000265783C2.957 -0.0247136 1.24207 1.71429 1.24207 3.84998C1.24207 5.98673 2.95705 7.70167 5.09277 7.70167L5.09289 7.70191Z" fill="#D8D8D8"/>
<path d="M6.0374 18.7075V15.7011C6.0374 13.4904 7.22973 11.5275 9.04373 10.4841C8.24917 9.46573 7.05591 8.77012 5.73955 8.62122C5.51569 8.6462 5.3168 8.67117 5.09391 8.67117C4.87005 8.67117 4.64716 8.6462 4.42329 8.62122C1.91379 8.91904 0 11.0798 0 13.6392V16.9683C0 17.1921 0.0989583 17.415 0.322818 17.6139C1.21825 18.4094 3.62801 18.8564 6.0374 18.7075Z" fill="#D8D8D8"/>
<path d="M23.6772 17.614C23.9011 17.4151 24 17.1912 24 16.9683V13.6393C24 11.0808 22.1121 8.94397 19.6026 8.62128C19.3787 8.64626 19.1798 8.67123 18.9569 8.67123C18.7331 8.67123 18.5102 8.64626 18.2863 8.62128C17.0191 8.7702 15.8267 9.4408 15.0072 10.4602C16.8461 11.5036 18.0635 13.4665 18.0635 15.702V18.7084C20.4971 18.8813 22.8319 18.4335 23.6772 17.614Z" fill="#D8D8D8"/>
<path d="M17.1181 15.7011C17.1181 13.1427 15.2052 10.981 12.6456 10.658C12.4467 10.683 12.2478 10.708 12.0489 10.708C11.8251 10.708 11.6262 10.683 11.4283 10.658V10.683C8.8937 10.9808 6.95581 13.1426 6.95581 15.7261V19.0551C6.95581 19.4029 7.20465 19.7257 7.70136 19.9995C9.68918 21.1179 14.4834 21.1179 16.3972 19.9746C16.8689 19.7017 17.0927 19.3779 17.0927 19.0551V15.701L17.1181 15.7011Z" fill="#D8D8D8"/>
<path d="M12.0748 2.01221C9.93807 2.01221 8.22412 3.7512 8.22412 5.86291C8.22412 7.97467 9.96311 9.71361 12.0748 9.71361C14.2116 9.71361 15.9255 7.97462 15.9255 5.86291C15.9255 3.75115 14.1865 2.01221 12.0748 2.01221Z" fill="#D8D8D8"/>
<path d="M16.8691 5.88802C16.8691 6.28578 16.8192 6.65855 16.7202 7.00636C17.3659 7.45311 18.1364 7.70195 18.931 7.70195C21.0677 7.70195 22.7817 5.96296 22.7817 3.85125C22.7817 1.73954 21.0427 0.000549316 18.931 0.000549316C17.3409 0.000549316 15.9497 0.944974 15.353 2.41016C16.2984 3.27967 16.8691 4.49674 16.8691 5.88802Z" fill="#D8D8D8"/>
<path d="M7.92538 8.32241C7.85044 8.17349 7.77646 8.04954 7.70152 7.89966C7.60256 7.9746 7.50264 8.0236 7.40369 8.07356C7.57759 8.1485 7.75148 8.22346 7.92538 8.32241Z" fill="#D8D8D8"/>
<path d="M16.6462 8.0736C16.5713 8.02364 16.4973 7.97464 16.3974 7.92468C16.3475 8.02364 16.2985 8.14854 16.2235 8.2475C16.3724 8.1985 16.4973 8.12356 16.6462 8.0736Z" fill="#D8D8D8"/>
</svg>
