<svg width="24" height="24" viewBox="0 0 24 24" fill="none" xmlns="http://www.w3.org/2000/svg">
<path d="M24 10.5811V21.5458C24 22.7958 22.9875 23.8083 21.7396 23.8083H17.4396C17.1271 23.8062 16.8292 23.6812 16.6084 23.4583C16.3876 23.2375 16.2647 22.9375 16.2667 22.625V14.4314C16.2667 14.1169 16.1417 13.8148 15.9188 13.594C15.6959 13.371 15.3917 13.2461 15.0772 13.2481H8.93324C8.61658 13.244 8.31032 13.3669 8.08536 13.5898C7.86036 13.8127 7.73328 14.1148 7.73328 14.4314V22.625C7.73536 22.9395 7.61036 23.2395 7.38744 23.4624C7.16662 23.6854 6.86453 23.8103 6.54996 23.8083H2.2604C1.01252 23.8083 0 22.7958 0 21.5458V10.5811C0 10.2394 0.147913 9.91236 0.406246 9.68527L11.2205 0.287497C11.6684 -0.0958324 12.3309 -0.0958324 12.7789 0.287497L23.5894 9.68527C23.8498 9.91027 24 10.2374 24 10.5811Z" fill="#EE4266"/>
</svg>
