<svg width="78" height="78" viewBox="0 0 78 78" fill="none" xmlns="http://www.w3.org/2000/svg">
<path fill-rule="evenodd" clip-rule="evenodd" d="M38.9595 11.1946C31.5924 11.1946 24.5292 14.1201 19.3227 19.3297C14.1129 24.5361 11.1875 31.5997 11.1875 38.9666C11.1875 46.3335 14.113 53.3969 19.3227 58.6034C24.529 63.8132 31.5926 66.7386 38.9595 66.7386C46.3264 66.7386 53.3898 63.8131 58.5963 58.6034C63.8061 53.3971 66.7315 46.3335 66.7315 38.9666C66.7315 31.5997 63.806 24.5362 58.5963 19.3297C53.39 14.12 46.3264 11.1946 38.9595 11.1946ZM38.9595 21.8812C43.488 21.8812 47.8328 23.6812 51.0319 26.8805C54.2346 30.0832 56.0346 34.4279 56.0346 38.9564C56.038 43.4849 54.2379 47.8263 51.0386 51.0288C47.8359 54.2348 43.4945 56.0349 38.9662 56.0349C34.4377 56.0349 30.0929 54.2381 26.8903 51.0388C23.6843 47.8362 21.8843 43.4948 21.8809 38.9664C21.8809 34.4379 23.681 30.0931 26.8836 26.8905C30.0863 23.688 34.431 21.8878 38.9595 21.8878V21.8812Z" fill="#EE4266"/>
<path fill-rule="evenodd" clip-rule="evenodd" d="M38.9584 30.5237C37.0315 30.5237 35.2916 31.6859 34.5536 33.4692C33.8156 35.2491 34.223 37.2997 35.5888 38.6622C36.9514 40.0281 39.0019 40.4355 40.7818 39.6974C42.5651 38.9594 43.7273 37.2195 43.7273 35.2926C43.7273 34.0268 43.223 32.8146 42.328 31.9229C41.4364 31.0279 40.2242 30.5237 38.9584 30.5237Z" fill="#EE4266"/>
<path fill-rule="evenodd" clip-rule="evenodd" d="M49.3114 49.666C47.8053 45.2344 43.6442 42.2522 38.9651 42.2522C34.283 42.2522 30.1217 45.2344 28.6162 49.666C31.3914 52.351 35.1016 53.8505 38.9651 53.8505C42.8256 53.8505 46.5359 52.351 49.3114 49.666Z" fill="#EE4266"/>
<path fill-rule="evenodd" clip-rule="evenodd" d="M26.9896 47.8162C28.4724 44.51 31.2509 41.9653 34.6706 40.7764C32.3295 38.9463 31.4078 35.8339 32.373 33.0253C33.3414 30.2167 35.9831 28.3298 38.9552 28.3298C41.9275 28.3298 44.569 30.2167 45.5375 33.0253C46.5026 35.8339 45.5809 38.9463 43.2399 40.7764C46.6596 41.9653 49.4381 44.51 50.9209 47.8162C53.115 44.8473 54.1302 41.1672 53.7628 37.4938C53.3988 33.8203 51.6789 30.4106 48.9439 27.9323C46.2054 25.4544 42.6454 24.0818 38.9515 24.0818C35.2579 24.0818 31.6979 25.4544 28.9591 27.9323C26.224 30.4102 24.5041 33.8199 24.1401 37.4938C23.7727 41.1673 24.788 44.8476 26.982 47.8162H26.9896Z" fill="#EE4266"/>
<path fill-rule="evenodd" clip-rule="evenodd" d="M37.8639 68.908C30.2998 68.6308 23.1232 65.505 17.7731 60.1518C12.4198 54.8019 9.29392 47.6254 9.01692 40.061H0C0.561046 60.7195 17.2054 77.3709 37.8639 77.9318V68.908Z" fill="#EE4266"/>
<path fill-rule="evenodd" clip-rule="evenodd" d="M40.0547 9.02376C47.6188 9.30095 54.7954 12.4268 60.1455 17.7799C65.4988 23.1299 68.6247 30.3063 68.9017 37.8707H77.9186C77.3642 17.2123 60.7132 0.567672 40.0547 0V9.02376Z" fill="#EE4266"/>
<path fill-rule="evenodd" clip-rule="evenodd" d="M40.0549 74.6026C58.8769 74.0315 74.0246 58.883 74.5956 40.0618H68.9017C68.6245 47.6259 65.4986 54.8024 60.1455 60.1526C54.7955 65.5059 47.6191 68.6317 40.0547 68.9087L40.0549 74.6026Z" fill="#EE4266"/>
<path fill-rule="evenodd" clip-rule="evenodd" d="M37.8635 3.32959C19.0415 3.90066 3.89385 19.0491 3.32275 37.8704H9.01674C9.29393 30.3062 12.4198 23.1297 17.7729 17.7796C23.1229 12.4263 30.2993 9.30041 37.8637 9.02341L37.8635 3.32959Z" fill="#EE4266"/>
</svg>
