<svg width="24" height="22" viewBox="0 0 24 22" fill="none" xmlns="http://www.w3.org/2000/svg">
<path d="M21.4288 0H2.57145C1.15717 0 0 1.10373 0 2.4527V15.2229C0 16.5801 1.15717 17.6756 2.57145 17.6756H7.06292C7.29435 17.6756 7.50864 17.7656 7.67151 17.9209L11.3914 21.469C11.5543 21.6244 11.7686 21.7143 12 21.7143C12.2314 21.7143 12.4457 21.6244 12.6086 21.469L16.3285 17.9209C16.4913 17.7656 16.7056 17.6756 16.9371 17.6756H21.4285C22.8428 17.6756 24 16.5801 24 15.2229V2.4527C24 1.10373 22.8431 0 21.4288 0ZM16.2859 12.2062H7.71436C7.24291 12.2062 6.85721 11.8465 6.85721 11.3886C6.85721 10.939 7.24291 10.5711 7.71436 10.5711H16.2859C16.7573 10.5711 17.143 10.939 17.143 11.3886C17.143 11.8465 16.7573 12.2062 16.2859 12.2062ZM16.2859 7.00647H7.71436C7.24291 7.00647 6.85721 6.63858 6.85721 6.18891C6.85721 5.73923 7.24291 5.37134 7.71436 5.37134H16.2859C16.7573 5.37134 17.143 5.73923 17.143 6.18891C17.143 6.63858 16.7573 7.00647 16.2859 7.00647Z" fill="#D8D8D8"/>
</svg>
