<svg width="18" height="18" viewBox="0 0 18 18" fill="none" xmlns="http://www.w3.org/2000/svg">
<path d="M8.99829 0C4.03502 0 -0.00170898 4.03852 -0.00170898 9C-0.00170898 13.9615 4.03502 18 8.99829 18C13.9616 18 17.9983 13.9633 17.9983 9C17.9983 4.03673 13.9616 0 8.99829 0ZM14.6278 15.1267V15.0371C14.6278 14.2698 14.1778 13.5676 13.4799 13.2459L11.07 12.1323C10.692 11.9592 10.4468 11.5768 10.4468 11.1585V10.4861C10.4468 10.277 10.5505 10.0792 10.7237 9.95527C11.1491 9.64502 11.4883 9.30752 11.6123 9.07109C11.6887 8.92959 11.7406 8.77227 11.7608 8.6167L11.8373 8.08584C11.8416 8.0542 11.8601 7.94609 11.8821 7.80722C11.9357 7.47674 12.0078 7.02235 12.0148 6.93447C12.1545 5.0536 11.3556 4.11747 10.6604 3.66747C9.65229 3.00829 8.34965 3.00565 7.34165 3.66044C6.32652 4.31786 5.86772 5.42 5.97847 6.93441C5.98726 7.03109 6.07778 7.59184 6.14458 8.00316L6.23423 8.61752C6.25884 8.78188 6.30806 8.93482 6.38276 9.07191C6.50669 9.30834 6.84858 9.6476 7.27397 9.95609C7.44711 10.0818 7.5482 10.2804 7.5482 10.487V11.1593C7.5482 11.5777 7.30299 11.9583 6.92243 12.1331L4.51515 13.2467C3.81729 13.5666 3.36729 14.2706 3.36729 15.0379V15.1276C1.71143 13.6062 0.671792 11.422 0.671792 9.00082C0.671792 4.41127 4.40724 0.675821 8.99679 0.675821C13.5863 0.675821 17.3218 4.41127 17.3218 9.00082C17.3218 11.4241 16.282 13.6063 14.6263 15.1276L14.6278 15.1267Z" fill="#EE4266"/>
</svg>
