<svg width="17" height="17" viewBox="0 0 17 17" fill="none" xmlns="http://www.w3.org/2000/svg">
<path d="M3.26923 11.7692C4.30885 11.7692 5.23077 11.2723 5.82577 10.5073L10.5858 12.8873C10.5138 13.1619 10.4615 13.4365 10.4615 13.7308C10.4615 15.5354 11.9262 17 13.7308 17C15.5354 17 17 15.5354 17 13.7308C17 11.9262 15.5354 10.4615 13.7308 10.4615C12.6912 10.4615 11.7692 10.9585 11.1742 11.7235L6.41423 9.34346C6.48615 9.06885 6.53846 8.79423 6.53846 8.5C6.53846 8.20577 6.48615 7.93115 6.41423 7.65654L11.1742 5.27654C11.7692 6.04154 12.6912 6.53846 13.7308 6.53846C15.5354 6.53846 17 5.07385 17 3.26923C17 1.46462 15.5354 0 13.7308 0C11.9262 0 10.4615 1.46462 10.4615 3.26923C10.4615 3.56346 10.5138 3.83808 10.5858 4.11269L5.82577 6.49269C5.23077 5.72769 4.30885 5.23077 3.26923 5.23077C1.46462 5.23077 0 6.69538 0 8.5C0 10.3046 1.46462 11.7692 3.26923 11.7692ZM13.7308 11.7692C14.8096 11.7692 15.6923 12.6519 15.6923 13.7308C15.6923 14.8096 14.8096 15.6923 13.7308 15.6923C12.6519 15.6923 11.7692 14.8096 11.7692 13.7308C11.7692 12.6519 12.6519 11.7692 13.7308 11.7692ZM13.7308 1.30769C14.8096 1.30769 15.6923 2.19038 15.6923 3.26923C15.6923 4.34808 14.8096 5.23077 13.7308 5.23077C12.6519 5.23077 11.7692 4.34808 11.7692 3.26923C11.7692 2.19038 12.6519 1.30769 13.7308 1.30769ZM3.26923 6.53846C4.34808 6.53846 5.23077 7.42115 5.23077 8.5C5.23077 9.57885 4.34808 10.4615 3.26923 10.4615C2.19038 10.4615 1.30769 9.57885 1.30769 8.5C1.30769 7.42115 2.19038 6.53846 3.26923 6.53846Z" fill="black"/>
</svg>
