<svg width="18" height="18" viewBox="0 0 18 18" fill="none" xmlns="http://www.w3.org/2000/svg">
<path d="M8.99121 0C4.02794 0 -0.00878906 4.03852 -0.00878906 9C-0.00878906 13.9615 4.02794 18 8.99121 18C13.9545 18 17.9912 13.9633 17.9912 9C17.9912 4.03673 13.9545 0 8.99121 0ZM14.6207 15.1267V15.0371C14.6207 14.2698 14.1707 13.5676 13.4729 13.2459L11.0629 12.1323C10.6849 11.9592 10.4397 11.5768 10.4397 11.1585V10.4861C10.4397 10.277 10.5434 10.0792 10.7166 9.95527C11.142 9.64502 11.4812 9.30752 11.6052 9.07109C11.6816 8.92959 11.7335 8.77227 11.7537 8.6167L11.8302 8.08584C11.8346 8.0542 11.853 7.94609 11.875 7.80722C11.9286 7.47674 12.0007 7.02235 12.0077 6.93447C12.1475 5.0536 11.3485 4.11747 10.6533 3.66747C9.64521 3.00829 8.34257 3.00565 7.33457 3.66044C6.31944 4.31786 5.86064 5.42 5.97139 6.93441C5.98018 7.03109 6.0707 7.59184 6.1375 8.00316L6.22715 8.61752C6.25176 8.78188 6.30098 8.93482 6.37568 9.07191C6.49961 9.30834 6.8415 9.6476 7.26689 9.95609C7.44003 10.0818 7.54112 10.2804 7.54112 10.487V11.1593C7.54112 11.5777 7.29591 11.9583 6.91535 12.1331L4.50807 13.2467C3.81021 13.5666 3.36021 14.2706 3.36021 15.0379V15.1276C1.70435 13.6062 0.664712 11.422 0.664712 9.00082C0.664712 4.41127 4.40016 0.675821 8.98971 0.675821C13.5793 0.675821 17.3147 4.41127 17.3147 9.00082C17.3147 11.4241 16.275 13.6063 14.6192 15.1276L14.6207 15.1267Z" fill="#EE4266"/>
</svg>
