<svg width="26" height="15" viewBox="0 0 26 15" fill="none" xmlns="http://www.w3.org/2000/svg">
<path fill-rule="evenodd" clip-rule="evenodd" d="M25.05 6.52751C23.5024 4.49413 21.5951 2.84235 19.4425 1.70917C17.3553 0.610576 15.0447 0 12.6139 0C10.183 0 7.87237 0.610576 5.78521 1.70917C3.63843 2.83985 1.73464 4.48603 0.189139 6.51255C-0.0537187 6.81728 -0.0686137 7.25946 0.178829 7.58249C1.72647 9.61587 3.63378 11.2677 5.78634 12.4008C7.87356 13.4994 10.1841 14.11 12.615 14.11C15.0459 14.11 17.3565 13.4994 19.4437 12.4008C21.5904 11.2701 23.4942 9.62397 25.0397 7.59745C25.2826 7.29272 25.2975 6.85054 25.05 6.52751ZM6.59726 10.8611C4.86058 9.94691 3.29569 8.64784 1.98069 7.0545C3.29581 5.46216 4.85949 4.16309 6.59726 3.24793C7.64201 2.69806 8.75093 2.28682 9.90675 2.03478C8.12426 2.99822 6.91222 4.88496 6.91222 7.05459C6.91222 9.22428 8.12423 11.1098 9.90675 12.0744C8.75087 11.8224 7.64195 11.4109 6.59726 10.8611ZM11.4842 7.08881C10.3616 7.08881 9.44626 6.17351 9.44626 5.05086C9.44626 3.92822 10.3616 3.01291 11.4842 3.01291C12.6069 3.01291 13.5222 3.92822 13.5222 5.05086C13.5222 6.17351 12.6069 7.08881 11.4842 7.08881ZM18.6325 10.8611C17.5878 11.4109 16.4789 11.8222 15.323 12.0742C17.1055 11.1108 18.3176 9.22404 18.3176 7.05441C18.3176 4.88473 17.1056 2.99916 15.323 2.03461C16.4789 2.28663 17.5878 2.69788 18.6325 3.24776C20.3704 4.16192 21.9341 5.46099 23.2491 7.05433C21.934 8.64666 20.3703 9.94591 18.6325 10.8611Z" fill="#ff3366"/>
</svg>
