<svg width="20" height="21" viewBox="0 0 20 21" fill="none" xmlns="http://www.w3.org/2000/svg">
<path d="M1.45191 4.0186H11.2063C11.3881 4.68701 11.7847 5.27705 12.3351 5.6977C12.8854 6.11836 13.5589 6.34626 14.2516 6.34626C14.9443 6.34626 15.6177 6.11836 16.1681 5.6977C16.7184 5.27705 17.1151 4.68701 17.2969 4.0186H19.1532C19.2642 4.0186 19.3742 3.99673 19.4767 3.95424C19.5793 3.91175 19.6725 3.84948 19.751 3.77097C19.8295 3.69246 19.8918 3.59925 19.9343 3.49668C19.9768 3.3941 19.9987 3.28416 19.9987 3.17313C19.9987 3.0621 19.9768 2.95216 19.9343 2.84958C19.8918 2.74701 19.8295 2.6538 19.751 2.57529C19.6725 2.49678 19.5793 2.43451 19.4767 2.39202C19.3742 2.34953 19.2642 2.32766 19.1532 2.32766H17.2899C17.1081 1.65924 16.7114 1.06921 16.1611 0.648555C15.6107 0.227902 14.9373 0 14.2446 0C13.5519 0 12.8784 0.227902 12.3281 0.648555C11.7777 1.06921 11.3811 1.65924 11.1993 2.32766H1.45191C1.34089 2.32766 1.23094 2.34953 1.12837 2.39202C1.02579 2.43451 0.932587 2.49678 0.854078 2.57529C0.775569 2.6538 0.713292 2.74701 0.670803 2.84958C0.628314 2.95216 0.606445 3.0621 0.606445 3.17313C0.606445 3.28416 0.628314 3.3941 0.670803 3.49668C0.713292 3.59925 0.775569 3.69246 0.854078 3.77097C0.932587 3.84948 1.02579 3.91175 1.12837 3.95424C1.23094 3.99673 1.34089 4.0186 1.45191 4.0186ZM14.2621 1.69181C14.5548 1.69366 14.8405 1.78221 15.083 1.94631C15.3254 2.1104 15.5138 2.34266 15.6244 2.61376C15.7349 2.88487 15.7627 3.18265 15.7041 3.4695C15.6455 3.75636 15.5032 4.01942 15.2952 4.22547C15.0872 4.43152 14.8228 4.57131 14.5355 4.62719C14.2481 4.68307 13.9505 4.65253 13.6805 4.53943C13.4104 4.42633 13.18 4.23574 13.0182 3.99173C12.8564 3.74773 12.7705 3.46125 12.7714 3.16847C12.7723 2.97364 12.8116 2.78089 12.887 2.60123C12.9624 2.42158 13.0725 2.25854 13.2109 2.12142C13.3493 1.9843 13.5134 1.87578 13.6938 1.80207C13.8741 1.72836 14.0672 1.69089 14.2621 1.69181Z" fill="#EE4266"/>
<path d="M19.1532 9.31037H9.39653C9.21556 8.64153 8.81934 8.05091 8.26911 7.62977C7.71888 7.20864 7.04527 6.98044 6.35238 6.98044C5.65948 6.98044 4.98587 7.20864 4.43564 7.62977C3.88541 8.05091 3.4892 8.64153 3.30822 9.31037H1.45191C1.22768 9.31037 1.01263 9.39945 0.854078 9.55801C0.695521 9.71656 0.606445 9.93161 0.606445 10.1558C0.606445 10.3801 0.695521 10.5951 0.854078 10.7537C1.01263 10.9122 1.22768 11.0013 1.45191 11.0013H3.31521C3.49618 11.6702 3.8924 12.2608 4.44263 12.6819C4.99286 13.103 5.66647 13.3312 6.35936 13.3312C7.05226 13.3312 7.72587 13.103 8.2761 12.6819C8.82633 12.2608 9.22254 11.6702 9.40352 11.0013H19.1532C19.3774 11.0013 19.5925 10.9122 19.751 10.7537C19.9096 10.5951 19.9987 10.3801 19.9987 10.1558C19.9987 9.93161 19.9096 9.71656 19.751 9.55801C19.5925 9.39945 19.3774 9.31037 19.1532 9.31037ZM6.34306 11.6372C6.05049 11.6353 5.76501 11.5469 5.52264 11.383C5.28026 11.2191 5.09185 10.9871 4.98116 10.7163C4.87047 10.4455 4.84246 10.1479 4.90067 9.86118C4.95887 9.57445 5.10068 9.31138 5.30821 9.10514C5.51575 8.89891 5.7797 8.75875 6.06679 8.70234C6.35388 8.64594 6.65125 8.67581 6.92138 8.7882C7.19152 8.90058 7.42232 9.09045 7.58468 9.33384C7.74704 9.57724 7.83369 9.86326 7.83369 10.1558C7.83339 10.3511 7.79456 10.5443 7.71942 10.7245C7.64429 10.9047 7.53433 11.0683 7.39585 11.2059C7.25737 11.3435 7.09309 11.4525 6.91243 11.5265C6.73177 11.6005 6.53829 11.6381 6.34306 11.6372Z" fill="#EE4266"/>
<path d="M19.1532 16.293H17.2899C17.1081 15.6246 16.7114 15.0346 16.1611 14.6139C15.6107 14.1933 14.9373 13.9654 14.2446 13.9654C13.5519 13.9654 12.8784 14.1933 12.3281 14.6139C11.7777 15.0346 11.3811 15.6246 11.1993 16.293H1.45191C1.22768 16.293 1.01263 16.3821 0.854078 16.5407C0.695521 16.6992 0.606445 16.9143 0.606445 17.1385C0.606445 17.3627 0.695521 17.5778 0.854078 17.7363C1.01263 17.8949 1.22768 17.984 1.45191 17.984H11.2063C11.3881 18.6524 11.7847 19.2424 12.3351 19.6631C12.8854 20.0837 13.5589 20.3116 14.2516 20.3116C14.9443 20.3116 15.6177 20.0837 16.1681 19.6631C16.7184 19.2424 17.1151 18.6524 17.2969 17.984H19.1532C19.3774 17.984 19.5925 17.8949 19.751 17.7363C19.9096 17.5778 19.9987 17.3627 19.9987 17.1385C19.9987 16.9143 19.9096 16.6992 19.751 16.5407C19.5925 16.3821 19.3774 16.293 19.1532 16.293ZM14.2621 18.6221C13.9686 18.624 13.6812 18.5386 13.4363 18.3769C13.1914 18.2151 13.0001 17.9843 12.8866 17.7136C12.7732 17.443 12.7426 17.1447 12.7989 16.8567C12.8552 16.5687 12.9958 16.3039 13.2028 16.0959C13.4098 15.8879 13.674 15.7461 13.9617 15.6884C14.2495 15.6307 14.5479 15.6599 14.8191 15.7721C15.0902 15.8843 15.322 16.0745 15.4849 16.3186C15.6478 16.5627 15.7345 16.8497 15.7341 17.1432C15.7316 17.5332 15.5759 17.9067 15.3005 18.183C15.0251 18.4593 14.6521 18.6161 14.2621 18.6198V18.6221Z" fill="#EE4266"/>
</svg>
