<svg width="18" height="18" viewBox="0 0 18 18" fill="none" xmlns="http://www.w3.org/2000/svg">
<path d="M14.4748 12.4615V7.84615C14.4748 5.01231 12.9789 2.64 10.3703 2.01231V1.38462C10.3703 0.618462 9.75004 0 8.99299 0C8.23593 0 7.63393 0.618462 7.63393 1.38462V2.01231C5.01616 2.64 3.52941 5.00308 3.52941 7.84615V12.4615L2.34365 13.6523C1.76902 14.2338 2.17035 15.2308 2.98214 15.2308H14.9947C15.8065 15.2308 16.217 14.2338 15.6423 13.6523L14.4748 12.4615ZM8.99299 18C9.99632 18 10.8172 17.1692 10.8172 16.1538H7.16875C7.16875 17.1692 7.98054 18 8.99299 18ZM4.23174 2.05846C4.61482 1.70769 4.62395 1.10769 4.2591 0.738461C3.91249 0.387692 3.34698 0.378462 2.99126 0.72C1.43154 2.16 0.355238 4.11692 0.00863315 6.31385C-0.0734574 6.87692 0.355238 7.38462 0.92075 7.38462C1.35857 7.38462 1.74166 7.06154 1.81463 6.61846C2.08826 4.82769 2.96389 3.23077 4.23174 2.05846ZM15.0221 0.72C14.6572 0.378462 14.0917 0.387692 13.7451 0.738461C13.3803 1.10769 13.3985 1.69846 13.7725 2.04923C15.0312 3.22154 15.916 4.81846 16.1896 6.60923C16.2534 7.05231 16.6365 7.37538 17.0835 7.37538C17.6399 7.37538 18.0777 6.86769 17.9865 6.30462C17.6399 4.11692 16.5727 2.16923 15.0221 0.72Z" fill="#EE4266"/>
</svg>
